ffmpeg version 3.4.8-0ubuntu0.2 Copyright (c) 2000-2020 the FFmpeg developers
  built with gcc 7 (Ubuntu 7.5.0-3ubuntu1~18.04)
  configuration: --prefix=/usr --extra-version=0ubuntu0.2 --toolchain=hardened --libdir=/usr/lib/x86_64-linux-gnu --incdir=/usr/include/x86_64-linux-gnu --enable-gpl --disable-stripping --enable-avresample --enable-avisynth --enable-gnutls --enable-ladspa --enable-libass --enable-libbluray --enable-libbs2b --enable-libcaca --enable-libcdio --enable-libflite --enable-libfontconfig --enable-libfreetype --enable-libfribidi --enable-libgme --enable-libgsm --enable-libmp3lame --enable-libmysofa --enable-libopenjpeg --enable-libopenmpt --enable-libopus --enable-libpulse --enable-librubberband --enable-librsvg --enable-libshine --enable-libsnappy --enable-libsoxr --enable-libspeex --enable-libssh --enable-libtheora --enable-libtwolame --enable-libvorbis --enable-libvpx --enable-libwavpack --enable-libwebp --enable-libx265 --enable-libxml2 --enable-libxvid --enable-libzmq --enable-libzvbi --enable-omx --enable-openal --enable-opengl --enable-sdl2 --enable-libdc1394 --enable-libdrm --enable-libiec61883 --enable-chromaprint --enable-frei0r --enable-libopencv --enable-libx264 --enable-shared
  libavutil      55. 78.100 / 55. 78.100
  libavcodec     57.107.100 / 57.107.100
  libavformat    57. 83.100 / 57. 83.100
  libavdevice    57. 10.100 / 57. 10.100
  libavfilter     6.107.100 /  6.107.100
  libavresample   3.  7.  0 /  3.  7.  0
  libswscale      4.  8.100 /  4.  8.100
  libswresample   2.  9.100 /  2.  9.100
  libpostproc    54.  7.100 / 54.  7.100
[rawvideo @ 0x55e8d1faba20] Estimating duration from bitrate, this may be inaccurate
Input #0, rawvideo, from '../../SVC-Encoder-20220109T061506Z-001/SVC-Encoder/Dataset/RollerCoaster/ERP_8x8/tile_yuv/Tile_10_480x240.yuv':
  Duration: 00:00:10.00, start: 0.000000, bitrate: 41472 kb/s
    Stream #0:0: Video: rawvideo (I420 / 0x30323449), yuv420p, 480x240, 41472 kb/s, 30 tbr, 30 tbn, 30 tbc
Stream mapping:
  Stream #0:0 -> #0:0 (rawvideo (native) -> h264 (libx264))
Press [q] to stop, [?] for help
[libx264 @ 0x55e8d1fb8c60] using cpu capabilities: MMX2 SSE2Fast LZCNT SSSE3 SSE4.2 AVX
[libx264 @ 0x55e8d1fb8c60] profile High, level 2.1
Output #0, rawvideo, to 'RollerCoaster_Tile_10_480x240_x264_QP_20.h264':
  Metadata:
    encoder         : Lavf57.83.100
    Stream #0:0: Video: h264 (libx264), yuv420p, 480x240, q=-1--1, 30 fps, 30 tbn, 30 tbc
    Metadata:
      encoder         : Lavc57.107.100 libx264
    Side data:
      cpb: bitrate max/min/avg: 0/0/0 buffer size: 0 vbv_delay: -1
frame=  300 fps=0.0 q=26.0 LPSNR=Y:inf U:inf V:inf *:inf size=      19kB time=00:00:09.93 bitrate=  15.6kbits/s speed=33.3x    
video:19kB audio:0kB subtitle:0kB other streams:0kB global headers:0kB muxing overhead: 0.000000%
[libx264 @ 0x55e8d1fb8c60] frame I:2     Avg QP:18.83  size:  1188  PSNR Mean Y:56.23 U:62.73 V:61.21 Avg:57.44 Global:57.44
[libx264 @ 0x55e8d1fb8c60] frame P:76    Avg QP:19.75  size:   166  PSNR Mean Y:56.03 U:61.24 V:59.78 Avg:57.06 Global:57.02
[libx264 @ 0x55e8d1fb8c60] frame B:222   Avg QP:25.65  size:    20  PSNR Mean Y:56.00 U:60.95 V:59.54 Avg:57.00 Global:56.97
[libx264 @ 0x55e8d1fb8c60] consecutive B-frames:  1.3%  0.0%  0.0% 98.7%
[libx264 @ 0x55e8d1fb8c60] mb I  I16..4: 96.1%  3.8%  0.1%
[libx264 @ 0x55e8d1fb8c60] mb P  I16..4:  3.6%  0.5%  0.0%  P16..4:  8.4%  0.8%  0.2%  0.0%  0.0%    skip:86.5%
[libx264 @ 0x55e8d1fb8c60] mb B  I16..4:  0.0%  0.0%  0.0%  B16..8:  1.0%  0.0%  0.0%  direct: 0.0%  skip:99.0%  L0:33.8% L1:66.2% BI: 0.0%
[libx264 @ 0x55e8d1fb8c60] 8x8 transform intra:9.3% inter:99.5%
[libx264 @ 0x55e8d1fb8c60] coded y,uvDC,uvAC intra: 1.7% 12.9% 0.0% inter: 0.1% 0.5% 0.0%
[libx264 @ 0x55e8d1fb8c60] i16 v,h,dc,p: 28% 46% 12% 15%
[libx264 @ 0x55e8d1fb8c60] i8 v,h,dc,ddl,ddr,vr,hd,vl,hu: 12% 40% 45%  1%  0%  0%  0%  1%  1%
[libx264 @ 0x55e8d1fb8c60] i4 v,h,dc,ddl,ddr,vr,hd,vl,hu: 12% 47% 31%  6%  0%  0%  0%  3%  0%
[libx264 @ 0x55e8d1fb8c60] i8c dc,h,v,p: 76% 15%  9%  1%
[libx264 @ 0x55e8d1fb8c60] Weighted P-Frames: Y:0.0% UV:0.0%
[libx264 @ 0x55e8d1fb8c60] ref P L0: 88.6%  1.5%  6.8%  3.1%
[libx264 @ 0x55e8d1fb8c60] ref B L0: 96.6%  3.4%
[libx264 @ 0x55e8d1fb8c60] ref B L1: 97.3%  2.7%
[libx264 @ 0x55e8d1fb8c60] PSNR Mean Y:56.010 U:61.038 V:59.610 Avg:57.015 Global:56.986 kb/s:15.49
